<?xml version="1.0" encoding="UTF-8"?>
<svg width="1200" height="1200" viewBox="0 0 1200 1200" fill="none" xmlns="http://www.w3.org/2000/svg">
    <!-- Background organic shape -->
    <path d="M300 200C450 150 600 300 550 450C500 600 300 650 200 500C100 350 150 250 300 200Z" fill="#9B6B42"/>
    
    <!-- Phone frame -->
    <rect x="350" y="250" width="500" height="700" rx="40" fill="white" stroke="#000000" stroke-width="4"/>
    <rect x="370" y="270" width="460" height="660" rx="30" fill="white" stroke="#000000" stroke-width="2"/>
    
    <!-- Store header with awning -->
    <path d="M390 290H810" stroke="#000000" stroke-width="2"/>
    <path d="M400 290C400 290 420 310 440 310C460 310 480 290 500 290C520 290 540 310 560 310C580 310 600 290 620 290C640 290 660 310 680 310C700 310 720 290 740 290C760 290 780 310 800 310" stroke="#000000" stroke-width="2" fill="none"/>
    
    <!-- Grid of product icons -->
    <g transform="translate(410,350)">
        <!-- Headphones icon -->
        <rect width="80" height="80" rx="15" fill="white" stroke="#000000" stroke-width="2"/>
        <path d="M20 40C20 30 35 20 40 20C45 20 60 30 60 40" stroke="#000000" stroke-width="2" fill="none"/>
        
        <!-- T-shirt icon -->
        <rect x="100" width="80" height="80" rx="15" fill="white" stroke="#000000" stroke-width="2"/>
        <path d="M130 20H150L160 30L150 40H130L120 30L130 20Z" stroke="#000000" stroke-width="2" fill="none"/>
        
        <!-- Shopping cart icon -->
        <rect x="200" width="80" height="80" rx="15" fill="white" stroke="#000000" stroke-width="2"/>
        <path d="M220 40H260L270 60H210L220 40Z" stroke="#000000" stroke-width="2" fill="none"/>
        <circle cx="225" cy="65" r="5" stroke="#000000" stroke-width="2" fill="none"/>
        <circle cx="255" cy="65" r="5" stroke="#000000" stroke-width="2" fill="none"/>
        
        <!-- Additional product squares -->
        <rect y="100" width="80" height="80" rx="15" fill="white" stroke="#000000" stroke-width="2"/>
        <rect x="100" y="100" width="80" height="80" rx="15" fill="white" stroke="#000000" stroke-width="2"/>
        <rect x="200" y="100" width="80" height="80" rx="15" fill="white" stroke="#000000" stroke-width="2"/>
    </g>
    
    <!-- Shopping bags -->
    <path d="M200 800L250 800L270 900H180L200 800Z" fill="#9B6B42" stroke="#000000" stroke-width="2"/>
    <path d="M210 780C210 780 220 760 235 760C250 760 260 780 260 780" stroke="#000000" stroke-width="2" fill="none"/>
    
    <path d="M800 850L850 850L870 950H780L800 850Z" fill="#9B6B42" stroke="#000000" stroke-width="2"/>
    <path d="M810 830C810 830 820 810 835 810C850 810 860 830 860 830" stroke="#000000" stroke-width="2" fill="none"/>
    
    <!-- Decorative elements -->
    <path d="M900 200C900 200 920 180 940 200C960 220 940 240 940 240" stroke="#D4C7B0" stroke-width="2" fill="none"/>
    <path d="M850 150L870 130L890 150" stroke="#D4C7B0" stroke-width="2" fill="none"/>
    <circle cx="920" cy="180" r="5" fill="#D4C7B0"/>
    
    <!-- Hearts -->
    <path d="M950 250C950 240 960 230 970 230C980 230 990 240 990 250C990 260 970 270 970 270C970 270 950 260 950 250Z" fill="#D4C7B0"/>
    
    <!-- Leaves -->
    <path d="M900 700C900 700 920 680 940 700C960 720 940 740 940 740" stroke="#9B6B42" stroke-width="2" fill="none"/>
    <path d="M920 720C920 720 940 700 960 720C980 740 960 760 960 760" stroke="#9B6B42" stroke-width="2" fill="none"/>
</svg> 