<?xml version="1.0" encoding="UTF-8"?><svg width="800px" height="800px" viewBox="0 0 800 800" version="1.1" xmlns="http://www.w3.org/2000/svg" xmlns:xlink="http://www.w3.org/1999/xlink"><defs><linearGradient id="premium-gradient" x1="0%" y1="0%" x2="100%" y2="100%"><stop offset="0%" style="stop-color:#1A472A;stop-opacity:1" /><stop offset="100%" style="stop-color:#2A5A3A;stop-opacity:1" /></linearGradient></defs><g id="Page-1" stroke="none" stroke-width="1" fill="none" fill-rule="evenodd"><rect id="background" fill="#FAF9F6" x="0" y="0" width="800" height="800"></rect><g id="Illustration/E-commerce"><rect width="800" height="800" fill="white"></rect><path id="Blob" fill="url(#premium-gradient)" fill-rule="evenodd" clip-rule="evenodd" d="M547.67 462.866C536.763 467.131 524.145 473.532 522.975 485.185C537.792 473.786 556.094 466.983 574.759 465.938C561.864 482.184 545.582 495.729 527.261 505.451C510.807 514.182 489.976 523.494 488.565 542.067C506.235 521.025 533.404 508.286 560.881 508.159C543.302 533.906 515.114 552.169 484.431 557.69C485.484 565.602 519.504 582.548 529.413 585.809C536.47 616.126 539.527 655.442 546.584 685.759C548.32 693.22 549.849 701.792 545.281 707.941C540.749 714.04 532.19 715.09 524.61 715.628C494.737 717.752 453.863 719.876 423.989 721.999C420.413 705.795 416.836 689.591 413.259 673.386C362.869 678.065 146.842 727.569 107.197 701.599C-45.8417 601.345 149.31 567.194 153.504 445.135C154.465 417.148 70.3191 368.226 71.655 339.628C72.5274 320.954 75.4182 302.713 84.6573 286.678C93.8965 270.644 108.537 258.292 124.449 248.844C102.542 243.213 85.9479 221.375 86.3919 198.76C86.8358 176.145 104.274 154.975 126.385 150.209C115.96 137.785 99.5446 132.091 87.5541 121.171C73.5861 108.45 66.5671 87.93 71.655 69.7355C76.743 51.541 94.6573 37.2259 113.533 38.0325C129.037 38.6951 142.681 48.5013 153.504 59.6233C170.288 76.8722 182.771 98.2757 189.52 121.378C194.018 136.776 210.504 144.609 224.427 152.578C238.35 160.547 252.808 174.428 248.885 189.982C243.699 168.697 320.777 194.05 390.682 200.257C399.963 201.081 409.952 202.28 416.812 208.585C426.672 217.645 441.475 220.95 454.251 216.943C458.316 227.02 461.307 238.339 457.851 248.641C454.396 258.943 442.156 266.806 432.372 262.08C434.926 275.219 437.48 288.359 440.034 301.498C465.05 301.799 490.063 302.31 515.071 303.031C528.325 303.413 542.178 304.016 553.698 310.582C565.217 317.149 580.635 307.846 592.018 283.945C584.651 322.945 593.38 338.528 608.431 342.765C608.462 342.47 609.632 342.611 609.666 342.316C614.148 303.776 640.299 269.557 676.695 256.02C673.476 263.436 650.448 278.085 634.458 296.792C618.837 315.065 611.361 339.528 610.587 343.921C635.389 337.418 643.657 355.895 685.735 339.628C666.508 362.745 629.455 368.437 604.175 352.157C592.249 365.458 592.916 380.186 584.467 395.927C598.819 378.09 617.876 393.904 602.758 405.465C610.782 406.236 619.458 407.293 625.278 412.87C631.099 418.447 631.244 430.185 623.736 433.121C598.381 443.036 573.026 452.951 547.67 462.866Z"/></g></g></svg>
