<?xml version="1.0" standalone="no"?>
<!DOCTYPE svg PUBLIC "-//W3C//DTD SVG 20010904//EN"
 "http://www.w3.org/TR/2001/REC-SVG-20010904/DTD/svg10.dtd">
<svg version="1.0" xmlns="http://www.w3.org/2000/svg"
 width="64.000000pt" height="64.000000pt" viewBox="0 0 64.000000 64.000000"
 preserveAspectRatio="xMidYMid meet">
<g transform="translate(0.000000,64.000000) scale(0.100000,-0.100000)"
fill="#000000" stroke="none">
<!-- Simplified outline for Safari pinned tab -->
<path d="M130 510 c-74 -27 -131 -122 -125 -207 9 -116 101 -202 211 -198 80
3 122 25 163 86 75 112 38 255 -82 316 -47 24 -123 25 -167 3z m175 -66 c25
-11 55 -67 55 -102 0 -55 -68 -122 -123 -122 -73 0 -139 90 -115 158 26 75
113 107 183 66z"/>
<!-- Growth Chart Arrow -->
<path d="M215 355 c-15 -15 -25 -34 -25 -45 0 -10 13 -32 28 -47 l28 -28 27
27 27 28 0 40 0 40 -28 0 c-22 0 -37 -8 -57 -15z"/>
</g>
</svg> 